# xmcd
#
# Track frame offsets: 
#        150
#        38746
#        70413
#        103749
#        137378
#        162309
#        192048
#        227454
#        261082
#
# Disc length: 4170 seconds
#
# Revision: 1
# Processed by: cddbd v1.5.2PL0 Copyright (c) Steve Scherf et al.
# Submitted via: ExactAudioCopy v1.0b3
#
DISCID=70104809
DTITLE=????? - MOVE
DYEAR=2012
DGENRE=Jazz
TTITLE0=MOVE
TTITLE1=BRAND NEW DAY
TTITLE2=ENDEAVOR
TTITLE3=RAINMAKER
TTITLE4=REALITY
TTITLE5=FANTASY
TTITLE6=IN BETWEEN
TTITLE7=MARGARITA!
TTITLE8=11?49PM
EXTD=YEAR: 2012
EXTT0=
EXTT1=
EXTT2=
EXTT3=
EXTT4=
EXTT5=
EXTT6=
EXTT7=
EXTT8=
PLAYORDER=
